G75*
G70*
%OFA0B0*%
%FSLAX24Y24*%
%IPPOS*%
%LPD*%
%AMOC8*
5,1,8,0,0,1.08239X$1,22.5*
%
%ADD10C,0.0050*%
%ADD11C,0.0110*%
%ADD12C,0.0100*%
%ADD13C,0.0060*%
%ADD14C,0.0070*%
%ADD15C,0.0300*%
%ADD16C,0.0080*%
D10*
X002675Y001675D02*
X002675Y001945D01*
X002810Y001945D01*
X002855Y001900D01*
X002855Y001810D01*
X002810Y001765D01*
X002675Y001765D01*
X002765Y001765D02*
X002855Y001675D01*
X002970Y001675D02*
X003150Y001675D01*
X003264Y001675D02*
X003444Y001855D01*
X003444Y001900D01*
X003399Y001945D01*
X003309Y001945D01*
X003264Y001900D01*
X003150Y001945D02*
X002970Y001945D01*
X002970Y001675D01*
X002970Y001810D02*
X003060Y001810D01*
X003264Y001675D02*
X003444Y001675D01*
X003559Y001720D02*
X003739Y001900D01*
X003739Y001720D01*
X003694Y001675D01*
X003604Y001675D01*
X003559Y001720D01*
X003559Y001900D01*
X003604Y001945D01*
X003694Y001945D01*
X003739Y001900D01*
X003854Y001900D02*
X003899Y001945D01*
X003989Y001945D01*
X004034Y001900D01*
X003854Y001720D01*
X003899Y001675D01*
X003989Y001675D01*
X004034Y001720D01*
X004034Y001900D01*
X004148Y001945D02*
X004283Y001945D01*
X004328Y001900D01*
X004328Y001855D01*
X004283Y001810D01*
X004148Y001810D01*
X004148Y001675D02*
X004283Y001675D01*
X004328Y001720D01*
X004328Y001765D01*
X004283Y001810D01*
X004148Y001675D02*
X004148Y001945D01*
X003854Y001900D02*
X003854Y001720D01*
X005300Y000963D02*
X005300Y000783D01*
X005345Y000738D01*
X005435Y000738D01*
X005480Y000783D01*
X005480Y000963D01*
X005435Y001008D01*
X005345Y001008D01*
X005300Y000963D01*
X005595Y001008D02*
X005595Y000783D01*
X005640Y000738D01*
X005730Y000738D01*
X005775Y000783D01*
X005775Y001008D01*
X005889Y001008D02*
X006069Y001008D01*
X005979Y001008D02*
X005979Y000738D01*
X006300Y000828D02*
X006300Y001008D01*
X006480Y001008D02*
X006480Y000828D01*
X006390Y000738D01*
X006300Y000828D01*
X006595Y000783D02*
X006640Y000738D01*
X006730Y000738D01*
X006775Y000783D01*
X006889Y000783D02*
X006934Y000738D01*
X007024Y000738D01*
X007069Y000783D01*
X007069Y000963D02*
X007024Y001008D01*
X006934Y001008D01*
X006889Y000963D01*
X006889Y000783D01*
X006775Y000963D02*
X006730Y001008D01*
X006640Y001008D01*
X006595Y000963D01*
X006595Y000783D01*
X007300Y000783D02*
X007345Y000738D01*
X007435Y000738D01*
X007480Y000783D01*
X007480Y000873D01*
X007390Y000873D01*
X007300Y000963D02*
X007300Y000783D01*
X007300Y000963D02*
X007345Y001008D01*
X007435Y001008D01*
X007480Y000963D01*
X007595Y001008D02*
X007775Y000738D01*
X007775Y001008D01*
X007889Y001008D02*
X008024Y001008D01*
X008069Y000963D01*
X008069Y000783D01*
X008024Y000738D01*
X007889Y000738D01*
X007889Y001008D01*
X007595Y001008D02*
X007595Y000738D01*
X007635Y002425D02*
X007680Y002425D01*
X007680Y002515D01*
X007635Y002560D01*
X007635Y002650D01*
X007680Y002695D01*
X007770Y002695D01*
X007815Y002650D01*
X007815Y002560D01*
X007770Y002515D01*
X007770Y002425D01*
X007815Y002425D01*
X007524Y002425D02*
X007389Y002515D01*
X007524Y002605D01*
X007389Y002695D02*
X007389Y002425D01*
X007275Y002470D02*
X007230Y002425D01*
X007140Y002425D01*
X007095Y002470D01*
X007275Y002650D01*
X007275Y002470D01*
X007095Y002470D02*
X007095Y002650D01*
X007140Y002695D01*
X007230Y002695D01*
X007275Y002650D01*
X006980Y002425D02*
X006800Y002425D01*
X006890Y002425D02*
X006890Y002695D01*
X006800Y002605D01*
X006559Y002925D02*
X006559Y003195D01*
X006739Y003195D01*
X006649Y003060D02*
X006559Y003060D01*
X006444Y003060D02*
X006444Y002925D01*
X006444Y003060D02*
X006399Y003105D01*
X006264Y003105D01*
X006264Y002925D01*
X006150Y002970D02*
X006105Y002925D01*
X006015Y002925D01*
X005970Y002970D01*
X006150Y003150D01*
X006150Y002970D01*
X006150Y003150D02*
X006105Y003195D01*
X006015Y003195D01*
X005970Y003150D01*
X005970Y002970D01*
X005855Y002925D02*
X005675Y002925D01*
X005765Y002925D02*
X005765Y003195D01*
X005675Y003105D01*
X005675Y003800D02*
X005855Y003800D01*
X005765Y003800D02*
X005765Y004070D01*
X005675Y003980D01*
X005970Y004025D02*
X005970Y003845D01*
X006150Y004025D01*
X006150Y003845D01*
X006105Y003800D01*
X006015Y003800D01*
X005970Y003845D01*
X005970Y004025D02*
X006015Y004070D01*
X006105Y004070D01*
X006150Y004025D01*
X006264Y004070D02*
X006264Y003800D01*
X006264Y003890D02*
X006399Y003980D01*
X006510Y003935D02*
X006510Y004025D01*
X006555Y004070D01*
X006645Y004070D01*
X006690Y004025D01*
X006690Y003935D01*
X006645Y003890D01*
X006645Y003800D01*
X006690Y003800D01*
X006555Y003800D02*
X006555Y003890D01*
X006510Y003935D01*
X006510Y003800D02*
X006555Y003800D01*
X006399Y003800D02*
X006264Y003890D01*
X007175Y003800D02*
X007355Y003800D01*
X007265Y003800D02*
X007265Y004070D01*
X007175Y003980D01*
X007470Y003935D02*
X007560Y003980D01*
X007605Y003980D01*
X007650Y003935D01*
X007650Y003845D01*
X007605Y003800D01*
X007515Y003800D01*
X007470Y003845D01*
X007470Y003935D02*
X007470Y004070D01*
X007650Y004070D01*
X007764Y004070D02*
X007764Y003800D01*
X007764Y003890D02*
X007899Y003980D01*
X008010Y003935D02*
X008010Y004025D01*
X008055Y004070D01*
X008145Y004070D01*
X008190Y004025D01*
X008190Y003935D01*
X008145Y003890D01*
X008145Y003800D01*
X008190Y003800D01*
X008055Y003800D02*
X008055Y003890D01*
X008010Y003935D01*
X008010Y003800D02*
X008055Y003800D01*
X007899Y003800D02*
X007764Y003890D01*
X008300Y004550D02*
X008435Y004550D01*
X008480Y004595D01*
X008480Y004640D01*
X008435Y004685D01*
X008300Y004685D01*
X008300Y004550D02*
X008300Y004820D01*
X008435Y004820D01*
X008480Y004775D01*
X008480Y004730D01*
X008435Y004685D01*
X008595Y004550D02*
X008685Y004550D01*
X008640Y004550D02*
X008640Y004820D01*
X008595Y004820D02*
X008685Y004820D01*
X008791Y004775D02*
X008791Y004730D01*
X008836Y004685D01*
X008926Y004685D01*
X008971Y004640D01*
X008971Y004595D01*
X008926Y004550D01*
X008836Y004550D01*
X008791Y004595D01*
X008791Y004775D02*
X008836Y004820D01*
X008926Y004820D01*
X008971Y004775D01*
X009086Y004775D02*
X009131Y004820D01*
X009221Y004820D01*
X009266Y004775D01*
X009086Y004595D01*
X009131Y004550D01*
X009221Y004550D01*
X009266Y004595D01*
X009266Y004775D01*
X009380Y004775D02*
X009425Y004820D01*
X009516Y004820D01*
X009561Y004775D01*
X009380Y004595D01*
X009425Y004550D01*
X009516Y004550D01*
X009561Y004595D01*
X009561Y004775D01*
X009675Y004775D02*
X009720Y004820D01*
X009810Y004820D01*
X009855Y004775D01*
X009675Y004595D01*
X009720Y004550D01*
X009810Y004550D01*
X009855Y004595D01*
X009855Y004775D01*
X009970Y004730D02*
X010060Y004820D01*
X010060Y004550D01*
X009970Y004550D02*
X010150Y004550D01*
X009675Y004595D02*
X009675Y004775D01*
X009380Y004775D02*
X009380Y004595D01*
X009086Y004595D02*
X009086Y004775D01*
X009139Y003820D02*
X009139Y003550D01*
X009139Y003640D02*
X009274Y003730D01*
X009385Y003685D02*
X009430Y003640D01*
X009430Y003550D01*
X009385Y003550D01*
X009274Y003550D02*
X009139Y003640D01*
X009025Y003595D02*
X008980Y003550D01*
X008890Y003550D01*
X008845Y003595D01*
X009025Y003775D01*
X009025Y003595D01*
X009025Y003775D02*
X008980Y003820D01*
X008890Y003820D01*
X008845Y003775D01*
X008845Y003595D01*
X008730Y003550D02*
X008550Y003550D01*
X008640Y003550D02*
X008640Y003820D01*
X008550Y003730D01*
X008239Y003195D02*
X008059Y003195D01*
X008059Y002925D01*
X007944Y002925D02*
X007944Y003060D01*
X007899Y003105D01*
X007764Y003105D01*
X007764Y002925D01*
X007650Y002970D02*
X007605Y002925D01*
X007515Y002925D01*
X007470Y002970D01*
X007650Y003150D01*
X007650Y002970D01*
X007470Y002970D02*
X007470Y003150D01*
X007515Y003195D01*
X007605Y003195D01*
X007650Y003150D01*
X007355Y002925D02*
X007175Y002925D01*
X007265Y002925D02*
X007265Y003195D01*
X007175Y003105D01*
X008059Y003060D02*
X008149Y003060D01*
X009385Y003685D02*
X009385Y003775D01*
X009430Y003820D01*
X009520Y003820D01*
X009565Y003775D01*
X009565Y003685D01*
X009520Y003640D01*
X009520Y003550D01*
X009565Y003550D01*
X009099Y005744D02*
X005201Y005744D01*
X005201Y006244D01*
X005213Y006244D02*
X005236Y006246D01*
X005259Y006251D01*
X005281Y006259D01*
X005301Y006271D01*
X005319Y006286D01*
X005335Y006303D01*
X005348Y006322D01*
X005358Y006343D01*
X005365Y006365D01*
X005369Y006388D01*
X005369Y006412D01*
X005365Y006435D01*
X005358Y006457D01*
X005348Y006478D01*
X005335Y006497D01*
X005319Y006514D01*
X005301Y006529D01*
X005281Y006541D01*
X005259Y006549D01*
X005236Y006554D01*
X005213Y006556D01*
X005201Y006556D02*
X005201Y007056D01*
X009099Y007056D01*
X009099Y005744D01*
X009300Y007050D02*
X009480Y007050D01*
X009390Y007050D02*
X009390Y007320D01*
X009300Y007230D01*
X009595Y007320D02*
X009595Y007050D01*
X009775Y007050D02*
X009775Y007320D01*
X009685Y007230D01*
X009595Y007320D01*
X009889Y007275D02*
X009889Y007185D01*
X009934Y007140D01*
X009934Y007050D01*
X009889Y007050D01*
X010024Y007050D02*
X010024Y007140D01*
X010069Y007185D01*
X010069Y007275D01*
X010024Y007320D01*
X009934Y007320D01*
X009889Y007275D01*
X010024Y007050D02*
X010069Y007050D01*
X010055Y008175D02*
X010010Y008175D01*
X010055Y008175D02*
X010055Y008265D01*
X010010Y008310D01*
X010010Y008400D01*
X010055Y008445D01*
X010145Y008445D01*
X010190Y008400D01*
X010190Y008310D01*
X010145Y008265D01*
X010145Y008175D01*
X010190Y008175D01*
X009899Y008175D02*
X009764Y008265D01*
X009899Y008355D01*
X009764Y008445D02*
X009764Y008175D01*
X009650Y008220D02*
X009605Y008175D01*
X009515Y008175D01*
X009470Y008220D01*
X009650Y008400D01*
X009650Y008220D01*
X009650Y008400D02*
X009605Y008445D01*
X009515Y008445D01*
X009470Y008400D01*
X009470Y008220D01*
X009355Y008175D02*
X009175Y008175D01*
X009265Y008175D02*
X009265Y008445D01*
X009175Y008355D01*
X009229Y009550D02*
X009229Y009820D01*
X009409Y009820D01*
X009319Y009685D02*
X009229Y009685D01*
X009114Y009685D02*
X009114Y009550D01*
X009114Y009685D02*
X009069Y009730D01*
X008934Y009730D01*
X008934Y009550D01*
X008819Y009595D02*
X008774Y009550D01*
X008684Y009550D01*
X008639Y009595D01*
X008819Y009775D01*
X008819Y009595D01*
X008639Y009595D02*
X008639Y009775D01*
X008684Y009820D01*
X008774Y009820D01*
X008819Y009775D01*
X008525Y009775D02*
X008525Y009595D01*
X008480Y009550D01*
X008390Y009550D01*
X008345Y009595D01*
X008525Y009775D01*
X008480Y009820D01*
X008390Y009820D01*
X008345Y009775D01*
X008345Y009595D01*
X008230Y009550D02*
X008050Y009550D01*
X008140Y009550D02*
X008140Y009820D01*
X008050Y009730D01*
X007739Y009820D02*
X007559Y009820D01*
X007559Y009550D01*
X007444Y009550D02*
X007444Y009685D01*
X007399Y009730D01*
X007264Y009730D01*
X007264Y009550D01*
X007150Y009595D02*
X007105Y009550D01*
X007015Y009550D01*
X006970Y009595D01*
X007150Y009775D01*
X007150Y009595D01*
X006970Y009595D02*
X006970Y009775D01*
X007015Y009820D01*
X007105Y009820D01*
X007150Y009775D01*
X006855Y009550D02*
X006675Y009550D01*
X006765Y009550D02*
X006765Y009820D01*
X006675Y009730D01*
X006239Y009820D02*
X006059Y009820D01*
X006059Y009550D01*
X005944Y009550D02*
X005944Y009685D01*
X005899Y009730D01*
X005764Y009730D01*
X005764Y009550D01*
X005650Y009595D02*
X005605Y009550D01*
X005515Y009550D01*
X005470Y009595D01*
X005650Y009775D01*
X005650Y009595D01*
X005470Y009595D02*
X005470Y009775D01*
X005515Y009820D01*
X005605Y009820D01*
X005650Y009775D01*
X005355Y009550D02*
X005175Y009550D01*
X005265Y009550D02*
X005265Y009820D01*
X005175Y009730D01*
X005345Y008945D02*
X005300Y008900D01*
X005345Y008945D02*
X005435Y008945D01*
X005480Y008900D01*
X005480Y008855D01*
X005300Y008675D01*
X005480Y008675D01*
X005595Y008675D02*
X005595Y008945D01*
X005685Y008855D01*
X005775Y008945D01*
X005775Y008675D01*
X005889Y008675D02*
X005934Y008675D01*
X005934Y008765D01*
X005889Y008810D01*
X005889Y008900D01*
X005934Y008945D01*
X006024Y008945D01*
X006069Y008900D01*
X006069Y008810D01*
X006024Y008765D01*
X006024Y008675D01*
X006069Y008675D01*
X006800Y008675D02*
X006980Y008675D01*
X006890Y008675D02*
X006890Y008945D01*
X006800Y008855D01*
X007095Y008945D02*
X007095Y008675D01*
X007275Y008675D02*
X007275Y008945D01*
X007185Y008855D01*
X007095Y008945D01*
X007389Y008900D02*
X007389Y008810D01*
X007434Y008765D01*
X007434Y008675D01*
X007389Y008675D01*
X007524Y008675D02*
X007524Y008765D01*
X007569Y008810D01*
X007569Y008900D01*
X007524Y008945D01*
X007434Y008945D01*
X007389Y008900D01*
X007524Y008675D02*
X007569Y008675D01*
X007559Y009685D02*
X007649Y009685D01*
X006149Y009685D02*
X006059Y009685D01*
X004815Y008900D02*
X004815Y008810D01*
X004770Y008765D01*
X004770Y008675D01*
X004815Y008675D01*
X004680Y008675D02*
X004680Y008765D01*
X004635Y008810D01*
X004635Y008900D01*
X004680Y008945D01*
X004770Y008945D01*
X004815Y008900D01*
X004680Y008675D02*
X004635Y008675D01*
X004524Y008675D02*
X004389Y008765D01*
X004524Y008855D01*
X004389Y008945D02*
X004389Y008675D01*
X004275Y008720D02*
X004230Y008675D01*
X004140Y008675D01*
X004095Y008720D01*
X004275Y008900D01*
X004275Y008720D01*
X004275Y008900D02*
X004230Y008945D01*
X004140Y008945D01*
X004095Y008900D01*
X004095Y008720D01*
X003980Y008675D02*
X003800Y008675D01*
X003890Y008675D02*
X003890Y008945D01*
X003800Y008855D01*
X003264Y009460D02*
X003309Y009505D01*
X003309Y009595D01*
X003354Y009550D01*
X003399Y009550D01*
X003444Y009595D01*
X003444Y009685D01*
X003559Y009685D02*
X003649Y009685D01*
X003559Y009550D02*
X003559Y009820D01*
X003739Y009820D01*
X003309Y009685D02*
X003309Y009595D01*
X003150Y009775D02*
X002970Y009595D01*
X002970Y009550D01*
X002855Y009685D02*
X002675Y009685D01*
X002810Y009820D01*
X002810Y009550D01*
X002970Y009820D02*
X003150Y009820D01*
X003150Y009775D01*
X002000Y008190D02*
X002000Y008145D01*
X001910Y008145D01*
X001865Y008190D01*
X001775Y008190D01*
X001730Y008145D01*
X001730Y008055D01*
X001775Y008010D01*
X001865Y008010D01*
X001910Y008055D01*
X002000Y008055D01*
X002000Y008010D01*
X002000Y007899D02*
X001910Y007764D01*
X001820Y007899D01*
X001730Y007764D02*
X002000Y007764D01*
X001775Y007650D02*
X001955Y007470D01*
X002000Y007470D01*
X001865Y007355D02*
X001865Y007175D01*
X001730Y007310D01*
X002000Y007310D01*
X001730Y007470D02*
X001730Y007650D01*
X001775Y007650D01*
X002515Y006695D02*
X002425Y006605D01*
X002515Y006695D02*
X002515Y006425D01*
X002425Y006425D02*
X002605Y006425D01*
X002720Y006470D02*
X002900Y006650D01*
X002900Y006470D01*
X002855Y006425D01*
X002765Y006425D01*
X002720Y006470D01*
X002720Y006650D01*
X002765Y006695D01*
X002855Y006695D01*
X002900Y006650D01*
X003014Y006605D02*
X003149Y006605D01*
X003194Y006560D01*
X003194Y006425D01*
X003309Y006425D02*
X003309Y006695D01*
X003489Y006695D01*
X003399Y006560D02*
X003309Y006560D01*
X003014Y006605D02*
X003014Y006425D01*
X003550Y006185D02*
X003730Y006185D01*
X003685Y006050D02*
X003685Y006320D01*
X003550Y006185D01*
X003845Y006095D02*
X003845Y006050D01*
X003845Y006095D02*
X004025Y006275D01*
X004025Y006320D01*
X003845Y006320D01*
X004139Y006320D02*
X004139Y006050D01*
X004139Y006140D02*
X004274Y006230D01*
X004385Y006185D02*
X004430Y006140D01*
X004430Y006050D01*
X004385Y006050D01*
X004274Y006050D02*
X004139Y006140D01*
X004385Y006185D02*
X004385Y006275D01*
X004430Y006320D01*
X004520Y006320D01*
X004565Y006275D01*
X004565Y006185D01*
X004520Y006140D01*
X004520Y006050D01*
X004565Y006050D01*
X004514Y006710D02*
X004559Y006755D01*
X004559Y006845D01*
X004604Y006800D01*
X004649Y006800D01*
X004694Y006845D01*
X004694Y006935D01*
X004809Y006935D02*
X004899Y006935D01*
X004809Y006800D02*
X004809Y007070D01*
X004989Y007070D01*
X004559Y006935D02*
X004559Y006845D01*
X004400Y006845D02*
X004355Y006800D01*
X004265Y006800D01*
X004220Y006845D01*
X004400Y007025D01*
X004400Y006845D01*
X004400Y007025D02*
X004355Y007070D01*
X004265Y007070D01*
X004220Y007025D01*
X004220Y006845D01*
X004105Y006800D02*
X003925Y006800D01*
X004015Y006800D02*
X004015Y007070D01*
X003925Y006980D01*
D11*
X004968Y005525D02*
X004970Y005540D01*
X004976Y005553D01*
X004985Y005565D01*
X004996Y005574D01*
X005010Y005580D01*
X005025Y005582D01*
X005040Y005580D01*
X005053Y005574D01*
X005065Y005565D01*
X005074Y005554D01*
X005080Y005540D01*
X005082Y005525D01*
X005080Y005510D01*
X005074Y005497D01*
X005065Y005485D01*
X005054Y005476D01*
X005040Y005470D01*
X005025Y005468D01*
X005010Y005470D01*
X004997Y005476D01*
X004985Y005485D01*
X004976Y005496D01*
X004970Y005510D01*
X004968Y005525D01*
D12*
X006100Y004500D02*
X006200Y004500D01*
X006200Y004300D02*
X006100Y004300D01*
X006100Y003625D02*
X006200Y003625D01*
X006200Y003425D02*
X006100Y003425D01*
X006100Y002750D02*
X006200Y002750D01*
X006200Y002550D02*
X006100Y002550D01*
X007600Y003425D02*
X007700Y003425D01*
X007700Y003625D02*
X007600Y003625D01*
X007600Y004300D02*
X007700Y004300D01*
X007700Y004500D02*
X007600Y004500D01*
X008975Y004250D02*
X009075Y004250D01*
X009075Y004050D02*
X008975Y004050D01*
X009550Y006350D02*
X009550Y006450D01*
X009750Y006450D02*
X009750Y006350D01*
X008575Y008300D02*
X008475Y008300D01*
X008475Y008500D02*
X008575Y008500D01*
X008575Y009175D02*
X008475Y009175D01*
X008475Y009375D02*
X008575Y009375D01*
X007200Y009375D02*
X007100Y009375D01*
X007100Y009175D02*
X007200Y009175D01*
X007200Y008500D02*
X007100Y008500D01*
X007100Y008300D02*
X007200Y008300D01*
X005700Y008300D02*
X005600Y008300D01*
X005600Y008500D02*
X005700Y008500D01*
X005700Y009175D02*
X005600Y009175D01*
X005600Y009375D02*
X005700Y009375D01*
X004400Y008500D02*
X004300Y008500D01*
X004300Y008300D02*
X004400Y008300D01*
X002950Y007125D02*
X002850Y007125D01*
X002850Y006925D02*
X002950Y006925D01*
X002950Y006250D02*
X002850Y006250D01*
X002850Y006050D02*
X002950Y006050D01*
X002000Y006475D02*
X002000Y006575D01*
X001800Y006575D02*
X001800Y006475D01*
D13*
X004282Y007289D02*
X004518Y007289D01*
X004518Y007761D02*
X004282Y007761D01*
D14*
X001505Y003900D02*
X001507Y003987D01*
X001514Y004073D01*
X001524Y004160D01*
X001539Y004245D01*
X001558Y004330D01*
X001581Y004414D01*
X001608Y004496D01*
X001640Y004577D01*
X001675Y004657D01*
X001714Y004734D01*
X001757Y004810D01*
X001803Y004883D01*
X001853Y004954D01*
X001907Y005023D01*
X001964Y005089D01*
X002023Y005152D01*
X002086Y005211D01*
X002152Y005268D01*
X002221Y005322D01*
X002292Y005372D01*
X002365Y005418D01*
X002441Y005461D01*
X002518Y005500D01*
X002598Y005535D01*
X002679Y005567D01*
X002761Y005594D01*
X002845Y005617D01*
X002930Y005636D01*
X003015Y005651D01*
X003102Y005661D01*
X003188Y005668D01*
X003275Y005670D01*
X003362Y005668D01*
X003448Y005661D01*
X003535Y005651D01*
X003620Y005636D01*
X003705Y005617D01*
X003789Y005594D01*
X003871Y005567D01*
X003952Y005535D01*
X004032Y005500D01*
X004109Y005461D01*
X004185Y005418D01*
X004258Y005372D01*
X004329Y005322D01*
X004398Y005268D01*
X004464Y005211D01*
X004527Y005152D01*
X004586Y005089D01*
X004643Y005023D01*
X004697Y004954D01*
X004747Y004883D01*
X004793Y004810D01*
X004836Y004734D01*
X004875Y004657D01*
X004910Y004577D01*
X004942Y004496D01*
X004969Y004414D01*
X004992Y004330D01*
X005011Y004245D01*
X005026Y004160D01*
X005036Y004073D01*
X005043Y003987D01*
X005045Y003900D01*
X005043Y003813D01*
X005036Y003727D01*
X005026Y003640D01*
X005011Y003555D01*
X004992Y003470D01*
X004969Y003386D01*
X004942Y003304D01*
X004910Y003223D01*
X004875Y003143D01*
X004836Y003066D01*
X004793Y002990D01*
X004747Y002917D01*
X004697Y002846D01*
X004643Y002777D01*
X004586Y002711D01*
X004527Y002648D01*
X004464Y002589D01*
X004398Y002532D01*
X004329Y002478D01*
X004258Y002428D01*
X004185Y002382D01*
X004109Y002339D01*
X004032Y002300D01*
X003952Y002265D01*
X003871Y002233D01*
X003789Y002206D01*
X003705Y002183D01*
X003620Y002164D01*
X003535Y002149D01*
X003448Y002139D01*
X003362Y002132D01*
X003275Y002130D01*
X003188Y002132D01*
X003102Y002139D01*
X003015Y002149D01*
X002930Y002164D01*
X002845Y002183D01*
X002761Y002206D01*
X002679Y002233D01*
X002598Y002265D01*
X002518Y002300D01*
X002441Y002339D01*
X002365Y002382D01*
X002292Y002428D01*
X002221Y002478D01*
X002152Y002532D01*
X002086Y002589D01*
X002023Y002648D01*
X001964Y002711D01*
X001907Y002777D01*
X001853Y002846D01*
X001803Y002917D01*
X001757Y002990D01*
X001714Y003066D01*
X001675Y003143D01*
X001640Y003223D01*
X001608Y003304D01*
X001581Y003386D01*
X001558Y003470D01*
X001539Y003555D01*
X001524Y003640D01*
X001514Y003727D01*
X001507Y003813D01*
X001505Y003900D01*
D15*
X001975Y002600D02*
X001875Y002500D01*
D16*
X005150Y001900D02*
X005150Y001400D01*
X005400Y001150D01*
X005900Y001150D01*
X006150Y001400D01*
X006400Y001150D01*
X006900Y001150D01*
X007150Y001400D01*
X007400Y001150D01*
X007900Y001150D01*
X008150Y001400D01*
X008150Y001900D01*
X007900Y002150D01*
X007400Y002150D01*
X007150Y001900D01*
X006900Y002150D01*
X006400Y002150D01*
X006150Y001900D01*
X005900Y002150D01*
X005400Y002150D01*
X005150Y001900D01*
M02*
