G75*
G70*
%OFA0B0*%
%FSLAX24Y24*%
%IPPOS*%
%LPD*%
%AMOC8*
5,1,8,0,0,1.08239X$1,22.5*
%
%ADD10C,0.0050*%
%ADD11C,0.0040*%
%ADD12C,0.0059*%
D10*
X001298Y008050D02*
X001388Y008050D01*
X001433Y008095D01*
X001433Y008185D01*
X001388Y008230D01*
X001298Y008230D01*
X001253Y008185D01*
X001253Y008140D01*
X001433Y008140D01*
X001539Y008050D02*
X001629Y008050D01*
X001584Y008050D02*
X001584Y008320D01*
X001629Y008320D01*
X001744Y008230D02*
X001744Y008050D01*
X001879Y008050D01*
X001924Y008095D01*
X001924Y008230D01*
X002038Y008230D02*
X002173Y008230D01*
X002219Y008185D01*
X002219Y008095D01*
X002173Y008050D01*
X002038Y008050D01*
X002038Y008320D01*
X002333Y008185D02*
X002378Y008230D01*
X002468Y008230D01*
X002513Y008185D01*
X002513Y008095D01*
X002468Y008050D01*
X002378Y008050D01*
X002333Y008095D01*
X002333Y008185D01*
X002628Y008320D02*
X002628Y008050D01*
X002808Y008050D02*
X002808Y008320D01*
X002718Y008230D01*
X002628Y008320D01*
X003213Y008230D02*
X003258Y008230D01*
X003348Y008140D01*
X003348Y008050D02*
X003348Y008230D01*
X003463Y008185D02*
X003508Y008230D01*
X003598Y008230D01*
X003643Y008185D01*
X003643Y008095D01*
X003598Y008050D01*
X003508Y008050D01*
X003463Y008095D01*
X003463Y008185D01*
X003757Y008230D02*
X003892Y008230D01*
X003937Y008185D01*
X003892Y008140D01*
X003802Y008140D01*
X003757Y008095D01*
X003802Y008050D01*
X003937Y008050D01*
X004052Y008050D02*
X004052Y008185D01*
X004097Y008230D01*
X004232Y008230D01*
X004232Y008050D01*
X004346Y008140D02*
X004527Y008140D01*
X004527Y008095D02*
X004527Y008185D01*
X004482Y008230D01*
X004392Y008230D01*
X004346Y008185D01*
X004346Y008140D01*
X004392Y008050D02*
X004482Y008050D01*
X004527Y008095D01*
X004641Y008095D02*
X004641Y008140D01*
X004686Y008185D01*
X004776Y008185D01*
X004821Y008230D01*
X004821Y008275D01*
X004776Y008320D01*
X004686Y008320D01*
X004641Y008275D01*
X004641Y008095D02*
X004686Y008050D01*
X004776Y008050D01*
X004821Y008095D01*
X005230Y008050D02*
X005230Y008185D01*
X005275Y008230D01*
X005411Y008230D01*
X005411Y008050D01*
X005525Y008095D02*
X005525Y008185D01*
X005570Y008230D01*
X005660Y008230D01*
X005705Y008185D01*
X005705Y008095D01*
X005660Y008050D01*
X005570Y008050D01*
X005525Y008095D01*
X005812Y008050D02*
X005902Y008050D01*
X005857Y008050D02*
X005857Y008230D01*
X005902Y008230D01*
X005857Y008320D02*
X005857Y008365D01*
X006008Y008230D02*
X006098Y008230D01*
X006053Y008275D02*
X006053Y008095D01*
X006008Y008050D01*
X006213Y008095D02*
X006213Y008185D01*
X006258Y008230D01*
X006348Y008230D01*
X006393Y008185D01*
X006393Y008095D01*
X006348Y008050D01*
X006258Y008050D01*
X006213Y008095D01*
X006507Y008050D02*
X006507Y008320D01*
X006597Y008230D01*
X006687Y008320D01*
X006687Y008050D01*
X007097Y008050D02*
X007232Y008050D01*
X007277Y008095D01*
X007277Y008185D01*
X007232Y008230D01*
X007097Y008230D01*
X007428Y008230D02*
X007428Y008050D01*
X007473Y008050D02*
X007383Y008050D01*
X007428Y008230D02*
X007473Y008230D01*
X007428Y008320D02*
X007428Y008365D01*
X007584Y008230D02*
X007629Y008230D01*
X007719Y008140D01*
X007719Y008050D02*
X007719Y008230D01*
X007825Y008230D02*
X007915Y008230D01*
X007870Y008275D02*
X007870Y008095D01*
X007825Y008050D01*
X008030Y008050D02*
X008165Y008050D01*
X008210Y008095D01*
X008210Y008185D01*
X008165Y008230D01*
X008030Y008230D01*
X008324Y008185D02*
X008324Y008140D01*
X008504Y008140D01*
X008504Y008095D02*
X008504Y008185D01*
X008459Y008230D01*
X008369Y008230D01*
X008324Y008185D01*
X008369Y008050D02*
X008459Y008050D01*
X008504Y008095D01*
X008611Y008050D02*
X008701Y008050D01*
X008656Y008050D02*
X008656Y008320D01*
X008701Y008320D01*
X008815Y008185D02*
X008815Y008140D01*
X008996Y008140D01*
X008996Y008095D02*
X008996Y008185D01*
X008950Y008230D01*
X008860Y008230D01*
X008815Y008185D01*
X008860Y008050D02*
X008950Y008050D01*
X008996Y008095D01*
X009110Y008095D02*
X009110Y008185D01*
X009155Y008230D01*
X009245Y008230D01*
X009290Y008185D01*
X009290Y008095D01*
X009245Y008050D01*
X009155Y008050D01*
X009110Y008095D01*
X009401Y008230D02*
X009446Y008230D01*
X009536Y008140D01*
X009536Y008050D02*
X009536Y008230D01*
X009650Y008230D02*
X009650Y008005D01*
X009695Y007960D01*
X009740Y007960D01*
X009785Y008050D02*
X009650Y008050D01*
X009785Y008050D02*
X009830Y008095D01*
X009830Y008230D01*
X009945Y008185D02*
X009990Y008140D01*
X010125Y008140D01*
X010125Y008050D02*
X010125Y008320D01*
X009990Y008320D01*
X009945Y008275D01*
X009945Y008185D01*
D11*
X008588Y006795D02*
X008630Y006754D01*
X008630Y006712D01*
X008588Y006670D01*
X008505Y006670D01*
X008463Y006628D01*
X008463Y006587D01*
X008505Y006545D01*
X008588Y006545D01*
X008630Y006587D01*
X008588Y006795D02*
X008505Y006795D01*
X008463Y006754D01*
X008363Y006712D02*
X008363Y006587D01*
X008321Y006545D01*
X008196Y006545D01*
X008196Y006712D01*
X008096Y006712D02*
X007971Y006712D01*
X007929Y006670D01*
X007929Y006587D01*
X007971Y006545D01*
X008096Y006545D01*
X008096Y006462D02*
X008096Y006712D01*
X007829Y006712D02*
X007704Y006712D01*
X007662Y006670D01*
X007662Y006587D01*
X007704Y006545D01*
X007829Y006545D01*
X007829Y006462D02*
X007829Y006712D01*
X007562Y006795D02*
X007520Y006795D01*
X007520Y006545D01*
X007562Y006545D02*
X007478Y006545D01*
X007384Y006587D02*
X007342Y006545D01*
X007217Y006545D01*
X007217Y006503D02*
X007259Y006462D01*
X007300Y006462D01*
X007217Y006503D02*
X007217Y006712D01*
X007384Y006712D02*
X007384Y006587D01*
X006850Y006712D02*
X006766Y006545D01*
X006683Y006712D01*
X006583Y006670D02*
X006583Y006587D01*
X006541Y006545D01*
X006458Y006545D01*
X006416Y006587D01*
X006416Y006670D01*
X006458Y006712D01*
X006541Y006712D01*
X006583Y006670D01*
X006316Y006545D02*
X006232Y006545D01*
X006274Y006545D02*
X006274Y006795D01*
X006316Y006795D01*
X006138Y006712D02*
X006054Y006712D01*
X006096Y006754D02*
X006096Y006587D01*
X006054Y006545D01*
X005960Y006587D02*
X005918Y006628D01*
X005793Y006628D01*
X005793Y006670D02*
X005793Y006545D01*
X005918Y006545D01*
X005960Y006587D01*
X005835Y006712D02*
X005793Y006670D01*
X005835Y006712D02*
X005918Y006712D01*
X005693Y006670D02*
X005693Y006587D01*
X005651Y006545D01*
X005526Y006545D01*
X005526Y006503D02*
X005526Y006712D01*
X005651Y006712D01*
X005693Y006670D01*
X005609Y006462D02*
X005568Y006462D01*
X005526Y006503D01*
X005426Y006587D02*
X005426Y006670D01*
X005384Y006712D01*
X005301Y006712D01*
X005259Y006670D01*
X005259Y006628D01*
X005426Y006628D01*
X005426Y006587D02*
X005384Y006545D01*
X005301Y006545D01*
X005159Y006545D02*
X005159Y006587D01*
X005117Y006587D01*
X005117Y006545D01*
X005159Y006545D01*
X005159Y006670D02*
X005159Y006712D01*
X005117Y006712D01*
X005117Y006670D01*
X005159Y006670D01*
X004758Y006587D02*
X004716Y006545D01*
X004633Y006545D01*
X004591Y006587D01*
X004591Y006628D01*
X004633Y006670D01*
X004675Y006670D01*
X004633Y006670D02*
X004591Y006712D01*
X004591Y006754D01*
X004633Y006795D01*
X004716Y006795D01*
X004758Y006754D01*
X004491Y006587D02*
X004449Y006587D01*
X004449Y006545D01*
X004491Y006545D01*
X004491Y006587D01*
X004358Y006587D02*
X004316Y006545D01*
X004232Y006545D01*
X004191Y006587D01*
X004191Y006628D01*
X004232Y006670D01*
X004274Y006670D01*
X004232Y006670D02*
X004191Y006712D01*
X004191Y006754D01*
X004232Y006795D01*
X004316Y006795D01*
X004358Y006754D01*
X004091Y006670D02*
X003924Y006670D01*
X003824Y006670D02*
X003824Y006795D01*
X003657Y006795D01*
X003698Y006712D02*
X003657Y006670D01*
X003657Y006587D01*
X003698Y006545D01*
X003782Y006545D01*
X003824Y006587D01*
X003824Y006670D02*
X003740Y006712D01*
X003698Y006712D01*
X003556Y006795D02*
X003556Y006628D01*
X003473Y006545D01*
X003390Y006628D01*
X003390Y006795D01*
X003830Y007545D02*
X003913Y007545D01*
X003955Y007587D01*
X004055Y007545D02*
X004222Y007545D01*
X004139Y007545D02*
X004139Y007795D01*
X004222Y007712D01*
X004322Y007754D02*
X004322Y007587D01*
X004364Y007545D01*
X004447Y007545D01*
X004489Y007587D01*
X004322Y007754D01*
X004364Y007795D01*
X004447Y007795D01*
X004489Y007754D01*
X004489Y007587D01*
X004589Y007545D02*
X004756Y007545D01*
X004589Y007712D01*
X004589Y007754D01*
X004631Y007795D01*
X004714Y007795D01*
X004756Y007754D01*
X005118Y007587D02*
X005118Y007545D01*
X005160Y007545D01*
X005160Y007587D01*
X005118Y007587D01*
X005118Y007545D02*
X005201Y007462D01*
X005301Y007545D02*
X005301Y007670D01*
X005343Y007712D01*
X005468Y007712D01*
X005468Y007545D01*
X005568Y007587D02*
X005568Y007670D01*
X005610Y007712D01*
X005694Y007712D01*
X005735Y007670D01*
X005735Y007587D01*
X005694Y007545D01*
X005610Y007545D01*
X005568Y007587D01*
X005830Y007545D02*
X005872Y007587D01*
X005872Y007754D01*
X005913Y007712D02*
X005830Y007712D01*
X006014Y007712D02*
X006139Y007712D01*
X006180Y007670D01*
X006139Y007628D01*
X006055Y007628D01*
X006014Y007587D01*
X006055Y007545D01*
X006180Y007545D01*
X006281Y007628D02*
X006447Y007628D01*
X006447Y007587D02*
X006447Y007670D01*
X006406Y007712D01*
X006322Y007712D01*
X006281Y007670D01*
X006281Y007628D01*
X006322Y007545D02*
X006406Y007545D01*
X006447Y007587D01*
X006548Y007545D02*
X006548Y007795D01*
X006714Y007795D02*
X006714Y007545D01*
X006631Y007628D01*
X006548Y007545D01*
X007082Y007628D02*
X007248Y007628D01*
X007248Y007587D02*
X007248Y007670D01*
X007207Y007712D01*
X007123Y007712D01*
X007082Y007670D01*
X007082Y007628D01*
X007123Y007545D02*
X007207Y007545D01*
X007248Y007587D01*
X007346Y007545D02*
X007471Y007628D01*
X007346Y007712D01*
X007471Y007795D02*
X007471Y007545D01*
X007571Y007545D02*
X007571Y007712D01*
X007738Y007712D02*
X007738Y007587D01*
X007696Y007545D01*
X007571Y007545D01*
X007838Y007545D02*
X008005Y007545D01*
X008005Y007795D01*
X003955Y007754D02*
X003913Y007795D01*
X003830Y007795D01*
X003788Y007754D01*
X003788Y007712D01*
X003830Y007670D01*
X003788Y007628D01*
X003788Y007587D01*
X003830Y007545D01*
X003830Y007670D02*
X003872Y007670D01*
D12*
X001786Y006185D02*
X001685Y006286D01*
X001806Y006435D01*
X001775Y006495D01*
X001754Y006559D01*
X001564Y006578D01*
X001564Y006722D01*
X001754Y006741D01*
X001775Y006805D01*
X001806Y006865D01*
X001685Y007014D01*
X001786Y007115D01*
X001935Y006994D01*
X001995Y007025D01*
X002059Y007046D01*
X002078Y007236D01*
X002222Y007236D01*
X002241Y007046D01*
X002305Y007025D01*
X002365Y006994D01*
X002514Y007115D01*
X002615Y007014D01*
X002494Y006865D01*
X002525Y006805D01*
X002546Y006741D01*
X002736Y006722D01*
X002736Y006578D01*
X002546Y006559D01*
X002525Y006495D01*
X002494Y006435D01*
X002615Y006286D01*
X002514Y006185D01*
X002365Y006306D01*
X002305Y006275D01*
X002221Y006479D01*
X002258Y006501D01*
X002290Y006530D01*
X002314Y006566D01*
X002329Y006607D01*
X002335Y006650D01*
X002329Y006694D01*
X002314Y006735D01*
X002289Y006772D01*
X002256Y006801D01*
X002217Y006822D01*
X002174Y006833D01*
X002130Y006833D01*
X002087Y006823D01*
X002048Y006803D01*
X002014Y006775D01*
X001988Y006739D01*
X001972Y006698D01*
X001966Y006654D01*
X001970Y006610D01*
X001985Y006568D01*
X002009Y006531D01*
X002041Y006501D01*
X002079Y006479D01*
X001995Y006275D01*
X001935Y006306D01*
X001786Y006185D01*
X001778Y006193D02*
X001797Y006193D01*
X001868Y006251D02*
X001720Y006251D01*
X001703Y006308D02*
X002009Y006308D01*
X002032Y006366D02*
X001750Y006366D01*
X001796Y006424D02*
X002056Y006424D01*
X002077Y006481D02*
X001782Y006481D01*
X001761Y006539D02*
X002004Y006539D01*
X001975Y006596D02*
X001564Y006596D01*
X001564Y006654D02*
X001966Y006654D01*
X001977Y006711D02*
X001564Y006711D01*
X001763Y006769D02*
X002010Y006769D01*
X002100Y006826D02*
X001786Y006826D01*
X001790Y006884D02*
X002510Y006884D01*
X002514Y006826D02*
X002199Y006826D01*
X002291Y006769D02*
X002537Y006769D01*
X002557Y006942D02*
X001743Y006942D01*
X001696Y006999D02*
X001929Y006999D01*
X001944Y006999D02*
X002356Y006999D01*
X002371Y006999D02*
X002604Y006999D01*
X002572Y007057D02*
X002442Y007057D01*
X002512Y007114D02*
X002515Y007114D01*
X002234Y007114D02*
X002066Y007114D01*
X002060Y007057D02*
X002240Y007057D01*
X002229Y007172D02*
X002071Y007172D01*
X002077Y007229D02*
X002223Y007229D01*
X001858Y007057D02*
X001728Y007057D01*
X001785Y007114D02*
X001788Y007114D01*
X002323Y006711D02*
X002736Y006711D01*
X002736Y006654D02*
X002334Y006654D01*
X002326Y006596D02*
X002736Y006596D01*
X002539Y006539D02*
X002296Y006539D01*
X002223Y006481D02*
X002518Y006481D01*
X002504Y006424D02*
X002244Y006424D01*
X002268Y006366D02*
X002550Y006366D01*
X002597Y006308D02*
X002291Y006308D01*
X002432Y006251D02*
X002580Y006251D01*
X002522Y006193D02*
X002503Y006193D01*
M02*
