G75*
G70*
%OFA0B0*%
%FSLAX24Y24*%
%IPPOS*%
%LPD*%
%AMOC8*
5,1,8,0,0,1.08239X$1,22.5*
%
%ADD10C,0.1162*%
%ADD11R,0.0296X0.0651*%
%ADD12R,0.0360X0.0360*%
%ADD13R,0.0375X0.0532*%
%ADD14C,0.0591*%
%ADD15C,0.0660*%
%ADD16R,0.0847X0.0651*%
D10*
X001650Y001650D03*
X001650Y009150D03*
X010150Y009150D03*
X010150Y001650D03*
D11*
X008900Y005337D03*
X008400Y005337D03*
X007900Y005337D03*
X007400Y005337D03*
X006900Y005337D03*
X006400Y005337D03*
X005900Y005337D03*
X005400Y005337D03*
X005400Y007463D03*
X005900Y007463D03*
X006400Y007463D03*
X006900Y007463D03*
X007400Y007463D03*
X007900Y007463D03*
X008400Y007463D03*
X008900Y007463D03*
D12*
X009650Y006700D03*
X009650Y006100D03*
X007950Y004400D03*
X007350Y004400D03*
X007350Y003525D03*
X007950Y003525D03*
X008725Y004150D03*
X009325Y004150D03*
X006450Y004400D03*
X005850Y004400D03*
X005850Y003525D03*
X006450Y003525D03*
X006450Y002650D03*
X005850Y002650D03*
X003200Y006150D03*
X002600Y006150D03*
X001900Y006225D03*
X001900Y006825D03*
X002600Y007025D03*
X003200Y007025D03*
X004050Y008400D03*
X004650Y008400D03*
X005350Y008400D03*
X005950Y008400D03*
X005950Y009275D03*
X005350Y009275D03*
X006850Y009275D03*
X007450Y009275D03*
X008225Y009275D03*
X008825Y009275D03*
X008825Y008400D03*
X008225Y008400D03*
X007450Y008400D03*
X006850Y008400D03*
D13*
X004754Y007525D03*
X004046Y007525D03*
D14*
X003275Y004900D03*
X004275Y003900D03*
X003275Y002900D03*
D15*
X005650Y001650D03*
X006650Y001650D03*
X007650Y001650D03*
D16*
X003150Y007809D03*
X003150Y008991D03*
M02*
